<svg width="80" height="80" viewBox="0 0 80 80" fill="none" xmlns="http://www.w3.org/2000/svg">
<rect width="80" height="80" fill="white"/>
<g clip-path="url(#clip0_440_448)">
<path d="M32.4884 0.351444C34.4563 -0.282973 36.6696 -0.0463252 38.4713 0.963707C41.0587 2.31008 42.5369 5.32709 42.2834 8.17995C42.0989 10.8375 40.351 13.3731 37.8325 14.3559C35.5919 15.3499 32.8849 15.1364 30.8054 13.8665C28.4755 12.4587 27.0247 9.73679 27.2285 7.02894C27.3826 4.0079 29.5462 1.19331 32.4874 0.352451" fill="#595757"/>
<path d="M33.2894 2.32519C30.9098 2.96766 29.0615 5.35025 29.3201 7.83556C29.4427 11.1124 33.043 13.6903 36.2113 12.7075C39.2763 11.9885 41.1164 8.29475 39.8035 5.44491C38.8413 2.95155 35.8575 1.48333 33.2894 2.32418" fill="white"/>
<path d="M29.3971 69.0185C29.6009 67.649 28.7807 65.7337 30.0287 64.7549C36.1778 64.5756 42.3422 64.7438 48.5024 64.6824C49.1574 64.6783 50.3548 64.5978 50.3385 65.5423C50.4075 70.0054 50.369 74.4755 50.3497 78.9426C50.5879 80.2004 48.4173 80.3655 48.3047 79.1763C48.1851 75.0344 48.2773 70.8855 48.2662 66.7397C42.6646 66.8051 37.066 66.7165 31.4674 66.786C31.4634 67.7306 31.5526 68.6832 31.4289 69.6238C31.0436 70.7788 29.1112 70.1978 29.3961 69.0196L29.3971 69.0185Z" fill="#595757"/>
<path d="M18.9168 19.3346C21.7425 18.237 24.6036 16.658 27.7497 17.0668C30.4831 17.3921 33.1708 18.1111 35.7694 19.0134C39.0573 20.1221 40.9898 23.1814 43.4616 25.4069C45.7215 25.2921 47.9814 24.3173 50.2383 24.8752C53.3103 25.7009 54.0038 30.3513 51.4549 32.1368C49.7719 33.2263 47.6661 33.1307 45.7762 33.5788C43.7698 33.9 41.591 34.8174 39.6545 33.7742C37.9451 32.7762 36.5744 31.3191 35.157 29.9687C34.6338 32.1559 34.1137 34.3471 33.6129 36.5424C36.4699 37.7015 39.542 38.2594 42.3646 39.5101C43.8702 40.1183 44.513 41.8423 44.3741 43.3609C44.1895 47.6367 44.1044 51.9114 43.9655 56.1832C43.9574 57.3533 43.273 58.4852 42.1679 58.9323C39.4994 60.0602 35.5149 58.7259 35.1185 55.59C34.9643 52.6606 35.1337 49.7242 35.1144 46.7948C31.7413 45.5522 28.211 44.7909 24.8459 43.5401C23.829 43.1696 22.9672 42.508 22.1774 41.793C21.2731 46.5541 20.2136 51.2881 19.3204 56.0533C19.0507 57.5487 18.5853 59.025 18.5772 60.5546C18.6309 62.2414 20.8138 63.4538 22.2393 62.4206C23.4711 61.7509 23.5097 60.2253 23.8179 59.032C24.6807 55.3192 25.4583 51.5751 26.4864 47.9076C26.7328 46.7948 28.6459 47.2651 28.3884 48.3436C27.6838 52.2981 26.5168 56.16 25.7392 60.1025C25.4431 61.6049 24.8926 63.2081 23.5249 64.0761C21.3998 65.5484 18.0845 64.776 16.9368 62.4397C15.8783 60.5123 16.7522 58.317 17.099 56.3211C18.2578 50.6073 19.3518 44.8754 20.5836 39.1778C20.9882 35.2424 21.6117 31.3342 22.1044 27.4068C21.2153 27.8006 20.2328 28.0221 19.4207 28.5578C18.6431 30.6957 18.3085 32.9786 17.4346 35.0853C16.2453 37.6783 12.0945 37.9532 10.6123 35.4941C9.23036 33.3683 10.5464 30.886 11.0705 28.7099C11.7904 26.4693 11.9364 23.8873 13.5768 22.0676C15.0895 20.7172 17.1111 20.1704 18.9168 19.3336" fill="#595757"/>
<path d="M17.6505 22.1603C16.4298 22.6839 14.9516 23.1814 14.4852 24.558C13.596 26.7452 13.2148 29.0976 12.4757 31.3342C12.2141 32.309 11.7366 33.4872 12.4453 34.3935C13.1804 35.4639 15.1746 35.338 15.5832 34.0299C16.4146 31.6937 16.8303 29.2235 17.7316 26.9174C19.3183 26.0766 21.1118 25.6748 22.8141 25.1048C23.4377 24.8218 23.9649 25.2881 24.4312 25.6476C23.9851 29.6555 23.3728 33.6443 22.8719 37.6481C22.583 39.216 23.6496 40.7417 25.0892 41.3197C28.6581 42.8383 32.4935 43.6257 36.1201 45.0064C36.5784 45.2128 37.2516 45.4424 37.1908 46.0738C37.2678 49.1059 37.0215 52.1501 37.1989 55.1792C37.4148 56.6706 39.1009 57.2708 40.4331 57.2597C41.153 57.3282 41.9499 56.8085 41.8535 56.017C41.958 51.5388 42.2652 47.0647 42.2459 42.5865C42.3189 41.5996 41.2412 41.2784 40.5092 41.0035C37.8143 40.1163 35.1184 39.2291 32.4084 38.4034C31.9308 38.2433 31.0954 37.922 31.3225 37.2796C31.9541 34.0672 32.82 30.9012 33.5976 27.719C33.7406 26.9003 34.8528 26.8399 35.3759 27.3484C37.3276 28.9314 38.8606 31.173 41.2361 32.167C43.9198 31.9877 46.569 31.2838 49.2365 30.8629C51.2501 30.6605 51.4924 27.4934 49.633 26.8701C47.3264 26.423 45.0553 27.8036 42.7447 27.4632C40.4696 25.7382 38.8211 23.3022 36.48 21.6467C34.794 20.6528 32.8453 20.2429 30.9747 19.7656C29.0383 19.3487 27.0126 18.7334 25.0416 19.2682C22.4735 19.9529 20.0899 21.1462 17.6495 22.1633" fill="white"/>
<path d="M11.0969 73.9126C11.0199 73.2591 11.6363 72.6851 12.2862 72.7616C18.3197 72.8915 24.3644 72.8683 30.3979 72.7697C30.9525 72.7505 31.719 72.9298 31.7768 73.6035C31.8498 75.4815 31.8194 77.3667 31.7423 79.2437C31.6612 80.2266 29.9022 80.2568 29.7633 79.282C29.6477 77.8208 29.748 76.3526 29.7166 74.8884C24.2113 74.9347 18.7091 74.9075 13.2027 74.9116C13.1794 76.403 13.2686 77.8984 13.1683 79.3938C12.9026 80.0403 12.0054 80.1742 11.4822 79.7764C10.9895 79.3706 11.1091 78.709 11.0858 78.1592C11.101 76.7443 11.0513 75.3295 11.0969 73.9146V73.9126Z" fill="#595757"/>
<path d="M48.1632 57.1136C48.3133 56.4561 49.0717 56.441 49.6191 56.452C55.6557 56.4823 61.6973 56.452 67.738 56.4561C68.3382 56.3876 69.055 56.8196 68.9931 57.4883C69.0013 64.6471 69.0084 71.806 68.982 78.9648C69.0935 79.9325 67.6001 80.3565 67.1033 79.5922C66.6988 79.0836 66.9147 78.3727 66.8488 77.7836C66.86 71.3669 66.8488 64.9502 66.864 58.5366C61.3009 58.5446 55.7368 58.5446 50.1778 58.5406C49.977 59.9172 50.8054 61.8718 49.2612 62.6703C48.7492 62.3723 47.9179 62.1084 48.0558 61.3512C48.0639 59.9403 47.929 58.5063 48.1632 57.1136Z" fill="#595757"/>
</g>
<defs>
<clipPath id="clip0_440_448">
<rect width="59" height="80" fill="white" transform="translate(10)"/>
</clipPath>
</defs>
</svg>
